<?xml version="1.0" encoding="utf-8"?><svg xml:space="preserve" viewBox="0 0 100 100" y="0px" x="0px" xmlns:xlink="http://www.w3.org/1999/xlink" xmlns="http://www.w3.org/2000/svg" id="圖層_1" version="1.1" width="200px" height="200px" style="width:100%;height:100%;background-size:initial;background-repeat-y:initial;background-repeat-x:initial;background-position-y:initial;background-position-x:initial;background-origin:initial;background-image:initial;background-color:rgba(0, 128, 128, 0);background-clip:initial;background-attachment:initial;animation-play-state:paused" ><g class="ldl-scale" style="transform-origin:50% 50%;transform:rotate(0deg) scale(0.8, 0.8);animation-play-state:paused" ><g style="animation-play-state:paused" ><line y2="14.7" x2="50" y1="4.7" x1="50" stroke-miterlimit="10" stroke-linejoin="round" stroke-linecap="round" stroke-width="3.5" stroke="#333435" fill="none" style="stroke:rgb(51, 52, 53);animation-play-state:paused" ></line>
<line y2="25" x2="25" y1="18" x1="18" stroke-miterlimit="10" stroke-linejoin="round" stroke-linecap="round" stroke-width="3.5" stroke="#333435" fill="none" style="stroke:rgb(51, 52, 53);animation-play-state:paused" ></line>
<line y2="50" x2="14.7" y1="50" x1="4.7" stroke-miterlimit="10" stroke-linejoin="round" stroke-linecap="round" stroke-width="3.5" stroke="#333435" fill="none" style="stroke:rgb(51, 52, 53);animation-play-state:paused" ></line>
<line y2="75" x2="25" y1="82" x1="18" stroke-miterlimit="10" stroke-linejoin="round" stroke-linecap="round" stroke-width="3.5" stroke="#333435" fill="none" style="stroke:rgb(51, 52, 53);animation-play-state:paused" ></line>
<line y2="85.3" x2="50" y1="95.3" x1="50" stroke-miterlimit="10" stroke-linejoin="round" stroke-linecap="round" stroke-width="3.5" stroke="#333435" fill="none" style="stroke:rgb(51, 52, 53);animation-play-state:paused" ></line>
<line y2="75" x2="75" y1="82" x1="82" stroke-miterlimit="10" stroke-linejoin="round" stroke-linecap="round" stroke-width="3.5" stroke="#333435" fill="none" style="stroke:rgb(51, 52, 53);animation-play-state:paused" ></line>
<line y2="50" x2="85.3" y1="50" x1="95.3" stroke-miterlimit="10" stroke-linejoin="round" stroke-linecap="round" stroke-width="3.5" stroke="#333435" fill="none" style="stroke:rgb(51, 52, 53);animation-play-state:paused" ></line>
<line y2="25" x2="75" y1="18" x1="82" stroke-miterlimit="10" stroke-linejoin="round" stroke-linecap="round" stroke-width="3.5" stroke="#333435" fill="none" style="stroke:rgb(51, 52, 53);animation-play-state:paused" ></line></g>
<path d="M49.1,25.5l-6.7,10.2c-0.2,0.3-0.5,0.5-0.9,0.5 l-12.2,0.7c-0.8,0-1.3,0.9-0.9,1.6l5.5,10.9c0.2,0.3,0.2,0.7,0,1l-5.5,10.9c-0.4,0.7,0.1,1.6,0.9,1.6l12.2,0.7 c0.4,0,0.7,0.2,0.9,0.5l6.7,10.2c0.4,0.7,1.4,0.7,1.9,0l6.7-10.2c0.2-0.3,0.5-0.5,0.9-0.5l12.2-0.7c0.8,0,1.3-0.9,0.9-1.6l-5.5-10.9 c-0.2-0.3-0.2-0.7,0-1l5.5-10.9c0.4-0.7-0.1-1.6-0.9-1.6l-12.2-0.7c-0.4,0-0.7-0.2-0.9-0.5l-6.7-10.2C50.5,24.8,49.5,24.8,49.1,25.5 z" stroke-miterlimit="10" stroke-width="3.5" stroke="#333435" fill="#F5E169" style="stroke:rgb(51, 52, 53);fill:rgb(245, 225, 105);animation-play-state:paused" ></path>
<metadata xmlns:d="https://loading.io/stock/" style="animation-play-state:paused" ><d:name style="animation-play-state:paused" >star</d:name>


<d:tags style="animation-play-state:paused" >star,supernova,blazar,pulsar,quasar,bright</d:tags>


<d:license style="animation-play-state:paused" >by</d:license>


<d:slug style="animation-play-state:paused" >wg9ezt</d:slug></metadata></g></svg>